{"title":"13.2010.BRRIP.720P.H264-ZEKTORM","uid":6060901,"size":2201845085,"categoryP":"video","categoryS":"hd___movies","magnet":"?xt=urn:btih:bc92d831d4e5436d373d0fcfc784a82586acabf8&amp;dn=13.2010.BRRIP.720P.H264-ZEKTORM&amp;tr=udp%3A%2F%2Ftracker.openbittorrent.com%3A80&amp;tr=udp%3A%2F%2Fopen.demonii.com%3A1337&amp;tr=udp%3A%2F%2Ftracker.coppersurfer.tk%3A6969&amp;tr=udp%3A%2F%2Fexodus.desync.com%3A6969","seeders":0,"leechers":1,"uploader":"blowley","files":4,"time":1293117899,"description":"Title                            : 13\nYear                             : 2010\nGenre                            : Drama | Thriller\niMDB URL                         : http://www.imdb.com/title/tt0798817/\n\nComplete name                    : 13.2010.BRRIP.720P.H264-ZEKTORM.mp4\nFormat                           : MPEG-4\nFormat profile                   : Base Media\nCodec ID                         : isom\nFile size                        : 2.05 GiB\nDuration                         : 1h 33mn\nOverall bit rate                 : 3146 Kbps\nSubtitles                        : English (Format: srt)\n\nVideo\nID                               : 1\nFormat                           : AVC\nFormat/Info                      : Advanced Video Codec\nFormat profile                   : &lt;a class=&quot;__cf_email__&quot; href=&quot;/cdn-cgi/l/email-protection&quot; data-cfemail=&quot;733b1a141b333f475d43&quot;&gt;[email&amp;#160;protected]&lt;/a&gt;&lt;script cf-hash='f9e31' type=&quot;text/javascript&quot;&gt;\n/* &lt;![CDATA[ */!function(){try{var t=&quot;currentScript&quot;in document?document.currentScript:function(){for(var t=document.getElementsByTagName(&quot;script&quot;),e=t.length;e--;)if(t[e].getAttribute(&quot;cf-hash&quot;))return t[e]}();if(t&amp;&amp;t.previousSibling){var e,r,n,i,c=t.previousSibling,a=c.getAttribute(&quot;data-cfemail&quot;);if(a){for(e=&quot;&quot;,r=parseInt(a.substr(0,2),16),n=2;a.length-n;n+=2)i=parseInt(a.substr(n,2),16)^r,e+=String.fromCharCode(i);e=document.createTextNode(e),c.parentNode.replaceChild(e,c)}}}catch(u){}}();/* ]]&gt; */&lt;/script&gt;\nFormat settings, CABAC           : Yes\nFormat settings, ReFrames        : 5 frames\nCodec ID                         : avc1\nCodec ID/Info                    : Advanced Video Coding\nDuration                         : 1h 33mn\nBit rate mode                    : Variable\nBit rate                         : 2698 Kbps\nWidth                            : 1280 pixels\nHeight                           : 544 pixels\nDisplay aspect ratio             : 2.35\nFrame rate mode                  : Constant\nFrame rate                       : 25.000 fps\nResolution                       : 24 bits\nColorimetry                      : 4:2:0\nScan type                        : Progressive\nBits/(Pixel*Frame)               : 0.155\nStream size                      : 1.76 GiB (86%)\nTitle                            : Video\nWriting library                  : x264\n\nAudio\nID                               : 2\nFormat                           : AAC\nFormat/Info                      : Advanced Audio Codec\nFormat version                   : Version 4\nFormat profile                   : LC\nFormat settings, SBR             : No\nCodec ID                         : 40\nDuration                         : 1h 33mn\nBit rate mode                    : Variable\nBit rate                         : 446 Kbps\nMaximum bit rate                 : 528 Kbps\nChannel(s)                       : 6 channels\nChannel positions                : Front: L C R, Rear: L R, LFE\nSampling rate                    : 48.0 KHz\nResolution                       : 16 bits\nStream size                      : 297 MiB (14%)\nLanguage                         : English\n\nNotes                            : The source has a few glitches.\n\n\nScreenshots:\n &lt;a href=&quot;\nhttp://img218.imageshack.us/img218/5080/snap131z.png&quot; rel=&quot;nofollow&quot; target=&quot;_NEW&quot;&gt;\nhttp://img218.imageshack.us/img218/5080/snap131z.png&lt;/a&gt;\n &lt;a href=&quot;\nhttp://img156.imageshack.us/img156/6704/snap132k.png&quot; rel=&quot;nofollow&quot; target=&quot;_NEW&quot;&gt;\nhttp://img156.imageshack.us/img156/6704/snap132k.png&lt;/a&gt;\n &lt;a href=&quot;\nhttp://img408.imageshack.us/img408/7176/snap133.png&quot; rel=&quot;nofollow&quot; target=&quot;_NEW&quot;&gt;\nhttp://img408.imageshack.us/img408/7176/snap133.png&lt;/a&gt;\n &lt;a href=&quot;\nhttp://img684.imageshack.us/img684/3507/snap134.png&quot; rel=&quot;nofollow&quot; target=&quot;_NEW&quot;&gt;\nhttp://img684.imageshack.us/img684/3507/snap134.png&lt;/a&gt;\n\n\n","torrent":{"xt":"urn:btih:bc92d831d4e5436d373d0fcfc784a82586acabf8","amp;dn":"13.2010.BRRIP.720P.H264-ZEKTORM","amp;tr":["udp%3A%2F%2Ftracker.openbittorrent.com%3A80","udp%3A%2F%2Fopen.demonii.com%3A1337","udp%3A%2F%2Ftracker.coppersurfer.tk%3A6969","udp%3A%2F%2Fexodus.desync.com%3A6969"],"infoHash":"bc92d831d4e5436d373d0fcfc784a82586acabf8","infoHashBuffer":{"type":"Buffer","data":[188,146,216,49,212,229,67,109,55,61,15,207,199,132,168,37,134,172,171,248]},"announce":[],"urlList":[]}}